<svg width="162" height="52" fill="none" xmlns="http://www.w3.org/2000/svg"><path d="M156.234 51H5.766C3.134 51 1 48.799 1 46.084V5.916C1 3.201 3.134 1 5.766 1h150.468C158.866 1 161 3.201 161 5.916v40.168c0 2.715-2.134 4.916-4.766 4.916z" stroke="#fff" stroke-miterlimit="10"/><path d="M49.83 18.44V11h2.563c.578 0 1.02.035 1.325.107a2.5 2.5 0 011.09.533c.393.331.687.755.881 1.27.195.517.292 1.107.292 1.769 0 .565-.066 1.065-.198 1.502a3.654 3.654 0 01-.507 1.083 2.692 2.692 0 01-.678.675 2.753 2.753 0 01-.888.373 5.077 5.077 0 01-1.195.127H49.83zm.985-.878h1.588c.49 0 .875-.046 1.154-.138.28-.091.502-.22.667-.386.234-.233.415-.547.545-.941.13-.394.196-.872.196-1.433 0-.778-.128-1.376-.383-1.794-.256-.418-.566-.698-.931-.84-.265-.1-.69-.152-1.274-.152h-1.563v5.684zm6.063-1.817c0-.998.278-1.737.833-2.218.463-.399 1.028-.598 1.694-.598.74 0 1.346.242 1.817.728.47.486.705 1.156.705 2.012 0 .693-.104 1.238-.312 1.636a2.21 2.21 0 01-.908.927c-.398.22-.831.33-1.302.33-.754 0-1.364-.242-1.829-.726-.465-.484-.698-1.181-.698-2.091zm.94 0c0 .69.15 1.207.45 1.55.302.344.68.515 1.138.515.453 0 .83-.172 1.131-.517.302-.345.452-.871.452-1.579 0-.666-.152-1.171-.455-1.514a1.443 1.443 0 00-1.129-.515c-.456 0-.835.171-1.137.513-.3.34-.45.856-.45 1.547zm6.175 2.695l-1.65-5.39h.944l.858 3.111.32 1.157c.013-.057.106-.428.279-1.11l.857-3.157h.94l.806 3.126.269 1.03.31-1.04.923-3.116h.888l-1.684 5.39h-.95l-.857-3.228-.208-.919-1.091 4.146h-.954zm6.51 0v-5.39h.822v.767c.396-.592.968-.888 1.716-.888.325 0 .623.058.895.175.273.116.476.27.612.46.135.19.23.414.284.674.034.17.05.465.05.888v3.314h-.912v-3.278c0-.372-.036-.65-.107-.835a.882.882 0 00-.378-.44 1.2 1.2 0 00-.637-.166c-.39 0-.725.124-1.007.37-.283.248-.424.717-.424 1.407v2.943h-.914v-.002zm5.759 0V11h.913v7.439h-.913zm1.989-2.695c0-.998.277-1.737.832-2.218.464-.399 1.029-.598 1.695-.598.74 0 1.346.242 1.817.728.47.486.705 1.156.705 2.012 0 .693-.104 1.238-.312 1.636a2.21 2.21 0 01-.908.927c-.398.22-.832.33-1.302.33-.755 0-1.364-.242-1.829-.726-.465-.484-.698-1.181-.698-2.091zm.94 0c0 .69.15 1.207.45 1.55.302.344.68.515 1.138.515.453 0 .83-.172 1.131-.517.301-.345.452-.871.452-1.579 0-.666-.152-1.171-.455-1.514a1.443 1.443 0 00-1.129-.515 1.45 1.45 0 00-1.137.513c-.3.34-.45.856-.45 1.547zm8.697 2.03c-.339.287-.664.49-.977.609a2.82 2.82 0 01-1.008.177c-.591 0-1.047-.145-1.365-.433a1.434 1.434 0 01-.476-1.109c0-.264.06-.505.18-.723a1.48 1.48 0 01.472-.525c.194-.132.413-.232.657-.3.179-.047.45-.092.812-.137.737-.088 1.28-.192 1.628-.314.004-.126.005-.205.005-.239 0-.372-.087-.634-.259-.786-.234-.206-.58-.31-1.04-.31-.43 0-.747.076-.951.226-.205.15-.356.417-.455.8l-.893-.122c.081-.383.215-.691.401-.927.186-.235.456-.416.808-.543a3.6 3.6 0 011.222-.19c.46 0 .835.054 1.122.162.288.108.499.244.635.409.135.164.23.37.284.621.03.156.046.436.046.842v1.219c0 .849.019 1.386.058 1.61.038.225.115.44.23.647h-.954a1.926 1.926 0 01-.182-.664zm-.077-2.04c-.332.135-.828.25-1.491.345-.376.054-.641.115-.797.183a.78.78 0 00-.487.73c0 .244.092.447.276.61.185.162.454.243.81.243.351 0 .664-.077.938-.23.275-.154.475-.365.604-.632.099-.207.147-.51.147-.913v-.336zm5.836 2.705v-.68c-.342.535-.844.802-1.507.802-.43 0-.824-.119-1.184-.356a2.333 2.333 0 01-.837-.992c-.198-.425-.298-.912-.298-1.464 0-.537.09-1.026.27-1.464.179-.438.448-.774.806-1.007a2.16 2.16 0 011.203-.35 1.793 1.793 0 011.487.741v-2.669h.908v7.439h-.848zm-2.888-2.69c0 .69.146 1.206.437 1.548.29.342.635.513 1.03.513.4 0 .739-.163 1.018-.49.28-.327.418-.825.418-1.495 0-.737-.142-1.279-.426-1.624-.284-.345-.634-.517-1.05-.517-.406 0-.746.165-1.018.497-.272.332-.409.855-.409 1.568zm7.718-.005c0-.998.277-1.737.832-2.218.464-.399 1.028-.598 1.695-.598.741 0 1.346.242 1.817.728.47.486.705 1.156.705 2.012 0 .693-.104 1.238-.312 1.636a2.213 2.213 0 01-.908.927c-.398.22-.832.33-1.302.33-.754 0-1.364-.242-1.829-.726-.465-.484-.698-1.181-.698-2.091zm.94 0c0 .69.15 1.207.45 1.55.302.344.68.515 1.138.515.453 0 .83-.172 1.131-.517.301-.345.452-.871.452-1.579 0-.666-.152-1.171-.454-1.514a1.444 1.444 0 00-1.129-.515 1.45 1.45 0 00-1.137.513c-.3.34-.452.856-.452 1.547zm5.18 2.695v-5.39h.822v.767c.396-.592.967-.888 1.716-.888.325 0 .623.058.895.175.273.116.476.27.612.46.135.19.23.414.284.674.034.17.051.465.051.888v3.314h-.913v-3.278c0-.372-.036-.65-.107-.835a.878.878 0 00-.378-.44 1.202 1.202 0 00-.637-.166c-.389 0-.725.124-1.007.37-.283.248-.424.717-.424 1.407v2.943h-.914v-.002zm10.662-.818l.131.808a3.394 3.394 0 01-.69.08c-.332 0-.589-.052-.771-.157a.885.885 0 01-.386-.413c-.074-.17-.111-.53-.111-1.078v-3.1h-.67v-.71h.67v-1.335l.908-.548v1.882h.919v.71h-.919v3.151c0 .26.016.428.048.503a.379.379 0 00.158.177.6.6 0 00.311.066c.102 0 .235-.012.402-.036zm.893.818V11h.913v2.67a2.04 2.04 0 011.613-.741c.399 0 .746.079 1.04.236.294.157.505.375.632.652s.191.68.191 1.207v3.415h-.914v-3.415c0-.456-.099-.789-.297-.996-.198-.208-.478-.312-.839-.312-.271 0-.526.07-.764.21a1.19 1.19 0 00-.51.571c-.101.24-.152.572-.152.995v2.948h-.913zm9.468-1.736l.944.117c-.149.551-.425.98-.827 1.284-.403.304-.917.456-1.543.456-.789 0-1.414-.242-1.875-.728-.461-.485-.693-1.166-.693-2.042 0-.907.234-1.61.701-2.111.467-.501 1.072-.751 1.816-.751.721 0 1.31.245 1.766.736.457.49.685 1.18.685 2.07l-.004.244h-4.019c.033.592.2 1.045.502 1.36.301.314.677.471 1.126.471.335 0 .621-.088.858-.264.236-.175.424-.456.563-.841zm-2.999-1.477h3.009c-.041-.453-.156-.793-.345-1.02a1.4 1.4 0 00-1.131-.527c-.42 0-.773.14-1.058.42-.286.282-.444.658-.475 1.127zM49 37.145l5.333-13.886h1.979l5.683 13.886h-2.093l-1.62-4.206h-5.806l-1.525 4.206H49zm4.007-5.703h4.707l-1.45-3.846c-.441-1.168-.77-2.127-.984-2.879-.177.89-.427 1.774-.749 2.652l-1.524 4.073zM63.246 41V27.086H64.8v1.307c.367-.511.78-.895 1.241-1.15.46-.256 1.02-.385 1.677-.385.858 0 1.616.221 2.273.663.657.442 1.152 1.066 1.487 1.871.334.805.502 1.688.502 2.647 0 1.03-.185 1.956-.554 2.78-.37.824-.906 1.456-1.61 1.895-.704.438-1.445.658-2.221.658-.569 0-1.078-.12-1.53-.36a3.473 3.473 0 01-1.113-.91v4.897h-1.705V41zm1.544-8.828c0 1.295.262 2.251.787 2.87.523.62 1.158.929 1.904.929.758 0 1.406-.32 1.946-.962.54-.64.81-1.633.81-2.979 0-1.282-.264-2.242-.791-2.88-.527-.636-1.157-.956-1.89-.956-.726 0-1.369.34-1.927 1.019-.56.678-.839 1.665-.839 2.96zM74.035 41V27.086h1.553v1.307c.367-.511.78-.895 1.24-1.15.462-.256 1.02-.385 1.677-.385.859 0 1.617.221 2.274.663.656.442 1.152 1.066 1.486 1.871.335.805.503 1.688.503 2.647 0 1.03-.185 1.956-.555 2.78-.369.825-.906 1.456-1.61 1.895-.704.438-1.444.658-2.22.658-.569 0-1.079-.12-1.53-.36a3.474 3.474 0 01-1.113-.91v4.897h-1.705V41zm1.543-8.828c0 1.295.262 2.251.787 2.87.523.62 1.158.929 1.904.929.757 0 1.406-.32 1.946-.962.54-.64.81-1.633.81-2.979 0-1.282-.264-2.242-.791-2.88-.527-.636-1.157-.956-1.89-.956-.726 0-1.369.34-1.927 1.019-.56.678-.839 1.665-.839 2.96zm14.227.512l1.734-.152c.082.695.273 1.264.573 1.71.3.445.765.805 1.397 1.08.631.274 1.342.412 2.131.412.701 0 1.32-.104 1.857-.312.537-.209.936-.494 1.198-.857a1.99 1.99 0 00.393-1.19c0-.435-.126-.815-.38-1.14-.252-.325-.669-.598-1.25-.82-.373-.145-1.196-.37-2.472-.677-1.275-.307-2.17-.596-2.68-.867-.663-.347-1.157-.778-1.483-1.293a3.165 3.165 0 01-.488-1.729c0-.7.2-1.355.597-1.965.397-.609.979-1.072 1.743-1.388.764-.316 1.614-.473 2.548-.473 1.03 0 1.937.165 2.724.497.786.332 1.39.82 1.813 1.463.424.644.651 1.373.682 2.188l-1.762.132c-.095-.878-.415-1.54-.961-1.989-.546-.448-1.353-.672-2.42-.672-1.112 0-1.922.203-2.43.61-.509.408-.763.9-.763 1.474 0 .498.18.91.54 1.23.353.323 1.277.653 2.77.99 1.493.339 2.518.634 3.074.886.809.373 1.405.845 1.791 1.416.385.572.577 1.23.577 1.975a3.78 3.78 0 01-.634 2.09c-.424.652-1.031 1.161-1.824 1.524-.792.363-1.684.545-2.675.545-1.257 0-2.31-.183-3.16-.55-.849-.366-1.515-.917-1.998-1.653-.482-.735-.736-1.567-.762-2.495zm17.069 2.936l.246 1.507c-.48.101-.91.152-1.288.152-.619 0-1.099-.098-1.44-.294-.341-.195-.581-.453-.72-.772-.139-.318-.208-.99-.208-2.012v-5.788h-1.251v-1.326h1.251v-2.491l1.695-1.024v3.514h1.715v1.326h-1.715v5.882c0 .487.03.799.09.938a.71.71 0 00.294.332c.136.083.33.123.583.123.189 0 .438-.022.748-.066zm1.032-3.505c0-1.863.518-3.242 1.554-4.14.865-.744 1.92-1.117 3.163-1.117 1.383 0 2.514.453 3.391 1.36.878.906 1.317 2.158 1.317 3.755 0 1.295-.194 2.313-.583 3.055a4.124 4.124 0 01-1.695 1.729 4.941 4.941 0 01-2.43.616c-1.408 0-2.547-.452-3.415-1.355-.867-.903-1.302-2.204-1.302-3.903zm1.753 0c0 1.288.28 2.253.843 2.894a2.702 2.702 0 002.122.962c.846 0 1.55-.322 2.112-.967.562-.644.843-1.626.843-2.945 0-1.245-.282-2.187-.848-2.828-.565-.64-1.267-.961-2.107-.961-.852 0-1.56.318-2.122.956-.562.639-.843 1.602-.843 2.89zm9.652 5.03v-10.06h1.534v1.525c.392-.713.753-1.183 1.085-1.41a1.888 1.888 0 011.094-.342c.574 0 1.158.183 1.752.55l-.588 1.581c-.417-.245-.833-.369-1.25-.369-.373 0-.708.112-1.004.336a1.819 1.819 0 00-.635.933 6.655 6.655 0 00-.284 1.99v5.266h-1.704zm13.365-3.24l1.762.218c-.278 1.03-.793 1.828-1.545 2.396-.751.568-1.711.852-2.879.852-1.471 0-2.638-.453-3.5-1.359-.862-.906-1.293-2.177-1.293-3.812 0-1.693.436-3.006 1.308-3.941.871-.935 2.001-1.402 3.391-1.402 1.345 0 2.443.458 3.296 1.374.852.915 1.279 2.203 1.279 3.864 0 .101-.003.253-.01.455h-7.501c.063 1.105.375 1.95.938 2.538.562.587 1.263.88 2.102.88.625 0 1.159-.164 1.602-.492.44-.326.791-.85 1.05-1.57zm-5.598-2.756h5.617c-.076-.846-.291-1.48-.645-1.904-.543-.657-1.247-.985-2.112-.985-.783 0-1.441.261-1.975.786-.533.524-.828 1.226-.885 2.103zm-89.953-9.922s-4.844 2.757-2.689 8.393c.506 1.323 1.735 2.628 3.473 3.383 0 0-.266.945-.892 2.25-.618 1.286-1.705 2.953-2.998 4.341 0 0-.954 1.02-2.03 1.257-.664.146-1.483.151-2.456-.199 0 0-1.288-.588-2.124-.775-.935-.208-2.153-.094-2.776.123-.623.218-1.917.737-1.917.737s-1.662.812-3.352-.416c-1.603-1.164-3.437-4.183-3.768-4.844-.255-.51-1.435-2.644-1.943-5.957-.15-.976-.186-2.06-.125-3.232.17-3.258 1.861-5.456 3.083-6.412a6.724 6.724 0 011.13-.727c.358-.18 2.568-1.379 5.08-.51 1.918.663 2.493 1 3.135.991.14-.002.288-.04.434-.073.573-.13 1.124-.37 1.124-.37a12.9 12.9 0 011.233-.475c.38-.126.763-.238 1.153-.323.198-.043.397-.08.597-.104a4.58 4.58 0 01.69-.043c.412.008.792.037 1.2.094.37.053.738.137 1.095.246.327.1.647.22.961.356.725.314 1.455.828 2.127 1.58l.555.71zM31.658 11s-1.17 0-2.612.81c-1.619.909-3.772 3.185-3.413 6.074 0 0 .722.184 1.84-.237.123-.046.247-.104.38-.16 1.537-.648 2.899-2.137 3.499-3.865.292-.84.419-1.677.306-2.622z" fill="#fff"/></svg>