<svg width="162" height="52" fill="none" xmlns="http://www.w3.org/2000/svg"><path d="M156.234 51H5.766C3.134 51 1 48.799 1 46.084V5.916C1 3.201 3.134 1 5.766 1h150.468C158.866 1 161 3.201 161 5.916v40.168c0 2.715-2.134 4.916-4.766 4.916z" stroke="#fff" stroke-miterlimit="10"/><path d="M49.824 18.383V11h2.543c.575 0 1.013.035 1.315.106.423.098.784.274 1.083.529.39.33.68.75.874 1.261.193.513.29 1.098.29 1.756 0 .561-.066 1.058-.197 1.49-.13.434-.3.792-.503 1.076a2.674 2.674 0 01-.673.67 2.733 2.733 0 01-.881.37c-.345.084-.74.126-1.187.126h-2.664zm.977-.871h1.576c.487 0 .868-.046 1.146-.136a1.63 1.63 0 00.662-.383c.231-.232.412-.543.541-.935.13-.391.194-.865.194-1.422 0-.773-.127-1.366-.38-1.78-.254-.415-.562-.693-.925-.834-.262-.1-.683-.151-1.263-.151H50.8v5.64h.001zm6.019-1.802c0-.99.274-1.725.825-2.202.46-.396 1.02-.594 1.682-.594.735 0 1.336.24 1.803.723.467.482.7 1.147.7 1.997 0 .688-.103 1.23-.31 1.624-.206.395-.506.7-.9.92a2.628 2.628 0 01-1.293.326c-.749 0-1.354-.24-1.815-.72-.462-.48-.693-1.172-.693-2.075zm.931 0c0 .684.15 1.197.448 1.538.3.341.675.511 1.129.511.45 0 .824-.171 1.123-.514.299-.342.448-.864.448-1.566 0-.662-.15-1.163-.451-1.503a1.432 1.432 0 00-1.121-.511c-.453 0-.83.17-1.128.509-.298.338-.448.85-.448 1.535zm6.129 2.674l-1.636-5.349h.936l.852 3.088.317 1.148c.013-.057.105-.425.277-1.103l.851-3.133h.932l.8 3.103.268 1.022.307-1.032.917-3.092h.881l-1.672 5.348h-.942l-.852-3.203-.206-.912-1.083 4.115h-.947zm6.462 0v-5.349h.816v.76c.393-.587.96-.88 1.703-.88.322 0 .619.057.889.173.27.116.472.268.607.456.134.188.228.411.282.67.034.168.05.461.05.881v3.29h-.906V15.13c0-.37-.035-.646-.106-.829a.875.875 0 00-.375-.438 1.197 1.197 0 00-.632-.163c-.387 0-.72.122-1 .368-.28.244-.421.71-.421 1.395v2.92h-.907zm5.716-.001V11h.906v7.383h-.906zm1.975-2.673c0-.99.275-1.725.825-2.202.46-.396 1.02-.594 1.682-.594.735 0 1.336.24 1.803.723.467.482.7 1.147.7 1.997 0 .688-.103 1.23-.31 1.624-.205.395-.506.7-.9.92a2.628 2.628 0 01-1.293.326c-.748 0-1.354-.24-1.815-.72-.461-.48-.692-1.172-.692-2.075zm.931 0c0 .684.15 1.197.449 1.538.299.341.674.511 1.128.511.45 0 .825-.171 1.123-.514.3-.342.448-.864.448-1.566 0-.662-.15-1.163-.45-1.503a1.436 1.436 0 00-1.122-.511c-.453 0-.829.17-1.128.509-.298.338-.448.85-.448 1.535zm8.633 2.013c-.336.285-.66.487-.97.605a2.8 2.8 0 01-1 .175c-.587 0-1.039-.143-1.354-.43-.316-.287-.473-.654-.473-1.1a1.478 1.478 0 01.647-1.239c.193-.13.41-.23.651-.297.179-.047.447-.092.806-.136.732-.088 1.271-.192 1.617-.313.004-.124.005-.202.005-.236 0-.37-.086-.63-.257-.78-.232-.206-.577-.308-1.032-.308-.427 0-.742.075-.945.224-.203.15-.353.414-.45.794l-.887-.121c.08-.38.213-.686.398-.92.184-.233.452-.413.801-.539.35-.126.754-.189 1.214-.189.457 0 .828.054 1.113.161.285.107.495.243.63.406.134.163.228.368.282.617.03.154.045.433.045.836v1.209c0 .843.02 1.375.058 1.598.039.224.115.438.23.643h-.948a1.91 1.91 0 01-.181-.66zM87.52 15.7c-.33.134-.822.248-1.48.342-.373.054-.636.114-.791.182a.774.774 0 00-.483.725c0 .241.09.443.274.604.183.16.45.242.803.242.35 0 .66-.076.932-.23a1.41 1.41 0 00.6-.626c.097-.205.145-.507.145-.906V15.7zm5.793 2.683v-.674c-.339.53-.838.795-1.496.795-.426 0-.818-.117-1.175-.353a2.315 2.315 0 01-.831-.984c-.197-.422-.295-.906-.295-1.453a3.8 3.8 0 01.267-1.453 2.11 2.11 0 01.8-1 2.14 2.14 0 011.195-.347 1.78 1.78 0 011.475.735V11h.902v7.383h-.842zm-2.866-2.67c0 .686.144 1.198.433 1.537.289.339.63.509 1.023.509.396 0 .733-.163 1.01-.486.277-.324.415-.819.415-1.484 0-.731-.14-1.269-.423-1.611-.282-.343-.63-.514-1.042-.514-.403 0-.74.164-1.01.494-.27.328-.406.848-.406 1.556zm7.66-.003c0-.99.275-1.725.826-2.202.46-.396 1.02-.594 1.682-.594.735 0 1.336.24 1.803.723.467.482.7 1.147.7 1.997 0 .688-.103 1.23-.309 1.624-.207.395-.507.7-.902.92a2.628 2.628 0 01-1.292.326c-.749 0-1.354-.24-1.815-.72-.462-.48-.693-1.172-.693-2.075zm.932 0c0 .684.15 1.197.448 1.538.3.341.675.511 1.129.511a1.43 1.43 0 001.123-.514c.299-.342.448-.864.448-1.566 0-.662-.151-1.163-.45-1.503a1.433 1.433 0 00-1.121-.511c-.453 0-.83.17-1.129.509-.298.338-.448.85-.448 1.535zm5.142 2.674v-5.349h.816v.76c.393-.587.96-.88 1.703-.88.322 0 .619.057.889.173.27.116.472.268.607.456.134.188.229.411.282.67.034.168.05.461.05.881v3.29h-.906V15.13c0-.37-.035-.646-.106-.829a.872.872 0 00-.375-.438 1.193 1.193 0 00-.632-.163c-.387 0-.719.122-1 .368-.281.244-.421.71-.421 1.395v2.92h-.907zm10.582-.811l.131.8a3.349 3.349 0 01-.685.081c-.329 0-.585-.052-.765-.156a.874.874 0 01-.383-.41c-.074-.17-.111-.526-.111-1.07V13.74h-.665v-.705h.665V11.71l.901-.543v1.868h.912v.705h-.912v3.127c0 .259.016.425.048.498a.375.375 0 00.157.177.604.604 0 00.309.065c.1 0 .233-.012.398-.035zm.887.81V11h.906v2.65c.423-.49.957-.736 1.601-.736.396 0 .741.078 1.032.235.293.156.502.372.628.647.125.275.189.675.189 1.199v3.389h-.907v-3.39c0-.453-.098-.783-.295-.99-.196-.205-.474-.309-.833-.309-.269 0-.521.07-.758.21-.236.14-.405.328-.506.566-.1.239-.151.568-.151.988v2.925h-.906zm9.397-1.723l.937.116c-.148.548-.422.973-.821 1.274-.4.302-.91.453-1.532.453-.782 0-1.402-.24-1.86-.722-.458-.482-.688-1.157-.688-2.027 0-.9.232-1.598.695-2.095.464-.498 1.065-.746 1.803-.746.715 0 1.3.243 1.753.73.453.487.68 1.172.68 2.055 0 .054-.002.134-.005.242h-3.989c.034.588.2 1.038.499 1.35.299.312.672.468 1.118.468.332 0 .616-.087.851-.262.235-.174.421-.452.559-.835zm-2.976-1.465h2.986c-.041-.45-.155-.787-.342-1.012a1.39 1.39 0 00-1.123-.524c-.416 0-.767.14-1.05.418-.284.279-.441.651-.471 1.118zM49 36.95l5.293-13.783h1.964l5.64 13.783h-2.076l-1.608-4.174H52.45l-1.514 4.174H49zm3.977-5.66h4.672l-1.439-3.817c-.438-1.16-.764-2.112-.977-2.858a17.54 17.54 0 01-.743 2.632l-1.514 4.043zm10.162 9.485v-13.81h1.542v1.297c.364-.507.774-.888 1.231-1.142.457-.254 1.012-.38 1.664-.38.852 0 1.605.219 2.256.657.652.439 1.144 1.058 1.476 1.857.332.799.499 1.675.499 2.627 0 1.022-.184 1.941-.55 2.76-.367.817-.9 1.445-1.599 1.88-.698.435-1.433.653-2.204.653-.564 0-1.07-.119-1.518-.358a3.446 3.446 0 01-1.105-.902v4.86H63.14v.001zm1.533-8.762c0 1.286.26 2.235.78 2.85.52.613 1.15.92 1.89.92.752 0 1.396-.318 1.932-.954.536-.636.804-1.621.804-2.957 0-1.272-.262-2.225-.785-2.857-.524-.634-1.149-.95-1.876-.95-.72 0-1.359.337-1.913 1.01-.555.675-.832 1.654-.832 2.938zm9.175 8.762v-13.81h1.542v1.297c.364-.507.774-.888 1.232-1.142.457-.254 1.012-.38 1.664-.38.852 0 1.604.219 2.256.657.652.439 1.143 1.058 1.475 1.857.333.799.499 1.675.499 2.627 0 1.022-.184 1.941-.55 2.76-.367.817-.9 1.445-1.598 1.88-.699.435-1.434.653-2.205.653a3.18 3.18 0 01-1.518-.358 3.446 3.446 0 01-1.104-.902v4.86h-1.693v.001zm1.532-8.762c0 1.286.26 2.235.78 2.85.52.613 1.15.92 1.89.92.753 0 1.396-.318 1.933-.954.535-.636.804-1.621.804-2.957 0-1.272-.262-2.225-.786-2.857-.523-.634-1.148-.95-1.876-.95-.72 0-1.358.337-1.912 1.01-.555.675-.833 1.654-.833 2.938zm15.841-.47v-1.617l5.839-.01v5.115c-.897.714-1.821 1.252-2.773 1.612-.954.36-1.93.54-2.934.54-1.354 0-2.584-.29-3.69-.87a5.75 5.75 0 01-2.505-2.514c-.564-1.097-.846-2.322-.846-3.676 0-1.34.28-2.593.841-3.756.562-1.163 1.368-2.026 2.422-2.59 1.052-.564 2.265-.846 3.638-.846.996 0 1.897.162 2.703.484.805.323 1.436.772 1.894 1.35.458.576.806 1.328 1.044 2.255l-1.645.452c-.207-.703-.465-1.254-.771-1.655-.308-.4-.746-.722-1.316-.963a4.824 4.824 0 00-1.9-.362c-.833 0-1.554.127-2.162.381-.608.254-1.098.587-1.472 1.001a4.8 4.8 0 00-.87 1.363 7.206 7.206 0 00-.526 2.773c0 1.23.212 2.256.635 3.084a4.06 4.06 0 001.847 1.843c.809.4 1.667.601 2.576.601.79 0 1.56-.152 2.313-.456.752-.304 1.322-.628 1.71-.973v-2.566h-4.051zm14.827 4.175c-.627.533-1.23.909-1.81 1.128-.58.22-1.202.329-1.866.329-1.097 0-1.94-.268-2.53-.804-.589-.536-.883-1.22-.883-2.054 0-.489.111-.935.333-1.34.222-.404.514-.728.874-.972a4.136 4.136 0 011.218-.555c.332-.088.834-.173 1.505-.254 1.366-.163 2.372-.358 3.018-.583a23.3 23.3 0 00.009-.442c0-.69-.159-1.175-.479-1.457-.432-.383-1.075-.574-1.927-.574-.797 0-1.384.14-1.763.418-.379.28-.659.773-.841 1.48l-1.655-.225c.15-.708.398-1.28.743-1.715.344-.436.843-.771 1.495-1.006.652-.236 1.407-.353 2.265-.353.852 0 1.546.1 2.078.3.533.202.924.454 1.175.758.25.304.426.688.527 1.152.056.288.084.808.084 1.56v2.257c0 1.573.036 2.568.108 2.985.072.417.215.816.428 1.198h-1.767a3.579 3.579 0 01-.339-1.231zm-.141-3.78c-.614.252-1.536.465-2.765.64-.695.1-1.187.213-1.475.338a1.444 1.444 0 00-.903 1.354c0 .451.17.828.512 1.129.342.301.842.45 1.5.45.652 0 1.231-.141 1.739-.427.507-.285.88-.675 1.119-1.17.181-.383.272-.946.272-1.692v-.621h.001zm4.296 5.012V23.167h1.692V36.95h-1.692zm4.277 0V23.167h1.692V36.95h-1.692zm11.15-3.216l1.749.216c-.276 1.022-.787 1.815-1.533 2.378-.746.564-1.698.846-2.858.846-1.46 0-2.618-.45-3.474-1.349-.855-.9-1.283-2.16-1.283-3.784 0-1.68.433-2.983 1.298-3.911.865-.928 1.986-1.391 3.366-1.391 1.334 0 2.425.454 3.271 1.363.846.909 1.27 2.187 1.27 3.835 0 .1-.004.251-.01.451h-7.445c.062 1.097.372 1.937.931 2.52.557.583 1.253.874 2.087.874.62 0 1.149-.162 1.589-.488.438-.325.785-.845 1.042-1.56zm-5.556-2.735h5.575c-.075-.84-.288-1.47-.64-1.89-.539-.652-1.238-.978-2.096-.978-.777 0-1.431.26-1.961.78-.529.52-.822 1.216-.878 2.088zm9.411 5.951v-9.985h1.523v1.513c.389-.708.748-1.175 1.076-1.4a1.88 1.88 0 011.086-.339c.57 0 1.15.182 1.739.546l-.583 1.57c-.414-.245-.827-.367-1.241-.367-.37 0-.702.111-.997.333-.295.223-.504.531-.629.927a6.592 6.592 0 00-.282 1.974v5.227h-1.692zm6.355 3.844l-.188-1.589c.37.1.693.15.969.15.376 0 .676-.062.902-.187a1.53 1.53 0 00.555-.527c.107-.169.279-.59.517-1.26.032-.094.082-.231.151-.413l-3.789-10.004h1.824l2.077 5.782c.27.733.511 1.505.724 2.313a22.89 22.89 0 01.696-2.276l2.134-5.82h1.693l-3.798 10.154c-.408 1.097-.724 1.852-.95 2.266-.301.558-.645.967-1.034 1.227-.388.26-.853.39-1.391.39-.327 0-.691-.068-1.092-.206z" fill="#fff"/><path d="M33.511 11H18.49c-5.75.174-7.337 3.174-7.49 7.49v15.02c.152 4.316 1.74 7.316 7.49 7.49h15.02c5.75-.174 7.337-3.174 7.49-7.49V18.49c-.152-4.316-1.739-7.316-7.489-7.49z" fill="#C8102E"/><path d="M37.669 25.99h-.793v3.934h.793v-3.935zm-3.924 3.206v-.951h1.458v-.728h-1.458v-.8h2.103v-.728h-2.897v3.935h2.977v-.728h-2.183zm-2.228-3.206l-.89 2.695-.84-2.55-.049-.146h-.66l-.05.146-.84 2.55-.889-2.696h-.801l1.33 3.935h.71l.03-.09.84-2.55.84 2.55.03.09h.71l1.33-3.935h-.801zm-5.095 3.12l-.318-.718-.996-2.25-.067-.152h-.698l-.067.152-.997 2.25-.317.718-.361.815h.832l.36-.815h1.797l.361.815h.832l-.361-.815zm-2.312-.718l.58-1.312.581 1.312h-1.16zm-2.686-2.402h-.008v2.474a.907.907 0 01-1.797 0v-2.475h-.793v2.45a1.538 1.538 0 001.539 1.54h.305a1.516 1.516 0 00.746-.193c.473-.263.793-.767.793-1.347v-2.45h-.785zm-4.49 0v1.587h-1.808v-1.588h-.794v3.935h.794v-1.587h1.808v1.587h.793v-3.935h-.793zm13.35-10.011v.122a4.177 4.177 0 01-4.178 4.178h-.212a4.177 4.177 0 01-4.177-4.178v-.122h-.727a5.01 5.01 0 0010.021 0h-.727z" fill="#fff"/></svg>