<svg width="162" height="52" fill="none" xmlns="http://www.w3.org/2000/svg"><path d="M36.475 23.063c2.293 1.306 2.29 4.611-.004 5.914l-6.128 3.478-6.545-6.48 6.567-6.392 6.11 3.48z" fill="#FBBC04"/><path d="M30.364 19.583l-6.567 6.39-12.66-12.536c.59-2.019 2.977-3.109 4.948-1.986l14.279 8.132z" fill="#34A853"/><path d="M23.798 25.974l6.544 6.481-14.261 8.096c-2.039 1.157-4.519-.05-4.998-2.2l12.715-12.377z" fill="#EA4335"/><path d="M23.798 25.974L11.083 38.35a3.46 3.46 0 01-.083-.758V14.407c0-.341.048-.666.137-.969l12.66 12.537z" fill="#4285F4"/><path d="M46 18.383V11h2.544c.574 0 1.012.035 1.314.106.423.098.784.274 1.083.529.39.329.68.75.874 1.261.193.513.29 1.098.29 1.755 0 .561-.066 1.058-.197 1.491-.131.433-.3.791-.503 1.075-.205.284-.43.507-.673.67a2.736 2.736 0 01-.881.37c-.345.084-.74.126-1.187.126H46zm.977-.871h1.576c.487 0 .869-.046 1.146-.136.277-.091.498-.218.662-.383.232-.232.412-.544.541-.935.13-.391.194-.866.194-1.423 0-.772-.127-1.365-.38-1.78-.254-.414-.562-.692-.925-.833-.261-.1-.683-.152-1.263-.152h-1.552v5.642h.001zm6.018-1.803c0-.99.275-1.724.826-2.201.46-.396 1.02-.594 1.682-.594.735 0 1.336.24 1.803.722.467.482.7 1.148.7 1.997 0 .688-.103 1.23-.31 1.624-.206.395-.506.7-.901.92a2.628 2.628 0 01-1.292.327c-.749 0-1.354-.24-1.816-.72-.46-.48-.692-1.172-.692-2.075zm.932 0c0 .685.15 1.198.448 1.539.3.34.675.51 1.129.51.45 0 .824-.17 1.122-.513.3-.343.449-.864.449-1.567 0-.661-.15-1.162-.451-1.503-.3-.34-.674-.51-1.121-.51-.453 0-.83.17-1.129.508-.297.34-.447.85-.447 1.536zm6.129 2.674l-1.636-5.349h.936l.852 3.088.317 1.148c.013-.057.105-.425.277-1.103l.85-3.133h.933l.8 3.103.267 1.022.308-1.032.916-3.092h.882l-1.672 5.348h-.942l-.852-3.203-.206-.912-1.083 4.115h-.947zm6.462 0v-5.348h.816v.76c.392-.587.96-.881 1.702-.881.323 0 .62.057.89.174.27.115.472.267.607.455.134.189.228.412.282.67.033.168.05.462.05.882v3.289h-.906V15.13c0-.369-.035-.645-.106-.828a.875.875 0 00-.376-.438c-.18-.11-.39-.164-.632-.164-.386 0-.719.123-1 .368-.28.246-.42.71-.42 1.395v2.921h-.907v-.001zm5.716 0V11h.906v7.383h-.906zm1.974-2.674c0-.99.275-1.724.826-2.201.46-.396 1.02-.594 1.682-.594.735 0 1.336.24 1.803.722.467.482.7 1.148.7 1.997 0 .688-.103 1.23-.31 1.624a2.2 2.2 0 01-.901.92 2.628 2.628 0 01-1.292.327c-.75 0-1.354-.24-1.816-.72-.461-.48-.692-1.172-.692-2.075zm.932 0c0 .685.149 1.198.448 1.539.3.34.675.51 1.128.51.45 0 .825-.17 1.123-.513.3-.343.449-.864.449-1.567 0-.661-.151-1.162-.451-1.503-.3-.34-.674-.51-1.121-.51-.453 0-.83.17-1.129.508-.298.34-.447.85-.447 1.536zm8.632 2.014c-.335.286-.659.487-.97.605-.31.117-.643.176-1 .176-.586 0-1.038-.144-1.354-.43a1.42 1.42 0 01-.473-1.1c0-.263.06-.502.179-.719a1.47 1.47 0 01.468-.52c.193-.131.41-.23.652-.298.178-.047.446-.092.806-.136.731-.087 1.27-.191 1.617-.312l.004-.237c0-.369-.086-.63-.257-.78-.232-.205-.576-.307-1.032-.307-.426 0-.741.074-.944.224-.204.149-.353.414-.451.793l-.886-.12c.08-.38.213-.686.398-.92.184-.233.451-.413.8-.54a3.6 3.6 0 011.214-.188c.457 0 .828.053 1.114.16.285.108.495.243.63.406.133.163.228.369.281.617.03.155.046.433.046.836v1.209c0 .843.019 1.376.057 1.599.039.223.115.437.23.642h-.947a1.914 1.914 0 01-.182-.66zm-.076-2.024c-.329.134-.822.248-1.48.342-.373.054-.636.115-.79.182a.774.774 0 00-.483.725.766.766 0 00.273.604c.183.161.45.242.803.242.35 0 .66-.076.932-.229a1.41 1.41 0 00.6-.627c.097-.205.145-.507.145-.906v-.333zm5.792 2.684v-.675c-.339.531-.837.796-1.495.796-.427 0-.819-.118-1.176-.353a2.315 2.315 0 01-.83-.985c-.197-.421-.296-.905-.296-1.452a3.8 3.8 0 01.267-1.453c.178-.435.445-.768.801-1a2.14 2.14 0 011.194-.347 1.78 1.78 0 011.475.735V11h.902v7.383h-.842zm-2.866-2.669c0 .685.145 1.197.433 1.536.29.34.63.51 1.023.51.396 0 .733-.162 1.01-.487.277-.324.415-.818.415-1.483 0-.732-.14-1.27-.422-1.612-.282-.342-.63-.514-1.043-.514-.403 0-.74.165-1.01.494-.27.329-.406.847-.406 1.556zm7.66-.005c0-.99.275-1.724.826-2.201.46-.396 1.02-.594 1.682-.594.735 0 1.336.24 1.803.722.467.482.7 1.148.7 1.997 0 .688-.103 1.23-.31 1.624-.206.395-.506.7-.9.92a2.628 2.628 0 01-1.293.327c-.749 0-1.354-.24-1.815-.72-.462-.48-.693-1.172-.693-2.075zm.932 0c0 .685.15 1.198.448 1.539.3.34.675.51 1.129.51.45 0 .824-.17 1.123-.513.299-.343.448-.864.448-1.567 0-.661-.15-1.162-.45-1.503-.3-.34-.674-.51-1.121-.51-.453 0-.83.17-1.129.508-.298.34-.448.85-.448 1.536zm5.142 2.674v-5.348h.816v.76c.393-.587.96-.881 1.703-.881.322 0 .619.057.889.174.27.116.472.267.607.455.134.189.228.412.282.67.034.168.05.462.05.882v3.289h-.906V15.13c0-.369-.035-.645-.106-.828a.872.872 0 00-.375-.438 1.193 1.193 0 00-.632-.164c-.387 0-.72.123-1 .368-.281.246-.421.71-.421 1.395v2.921h-.907v-.001zm10.582-.81l.13.8a3.34 3.34 0 01-.684.081c-.33 0-.585-.052-.766-.156a.875.875 0 01-.383-.41c-.073-.17-.11-.527-.11-1.07V13.74h-.665v-.704h.665V11.71l.901-.543v1.868h.912v.705h-.912v3.127c0 .258.016.425.048.498a.379.379 0 00.156.176.601.601 0 00.31.066c.1 0 .233-.012.398-.035zm.886.81V11h.906v2.65c.423-.49.958-.736 1.602-.736.396 0 .74.079 1.032.235.292.156.501.372.627.647s.189.674.189 1.198v3.39h-.906v-3.39c0-.454-.098-.784-.295-.99-.197-.206-.475-.31-.834-.31-.268 0-.521.07-.757.21-.237.14-.406.328-.506.566-.101.239-.152.568-.152.988v2.926h-.906v-.001zm9.398-1.722l.936.116c-.148.547-.421.972-.821 1.274-.399.302-.909.453-1.531.453-.783 0-1.403-.24-1.861-.723-.458-.482-.687-1.157-.687-2.027 0-.9.231-1.598.695-2.095.463-.497 1.064-.745 1.803-.745.715 0 1.299.243 1.753.73.453.487.68 1.171.68 2.054 0 .054-.002.134-.005.242h-3.989c.034.588.199 1.038.498 1.35.3.312.672.469 1.118.469.333 0 .617-.088.852-.262.234-.174.421-.454.559-.836zm-2.977-1.466h2.986c-.04-.45-.154-.787-.342-1.012a1.39 1.39 0 00-1.123-.524c-.416 0-.767.14-1.05.418-.284.28-.441.652-.471 1.118zM53.139 31.543v-1.617l5.838-.01v5.114c-.897.715-1.821 1.253-2.773 1.613-.953.36-1.93.54-2.934.54-1.354 0-2.584-.29-3.69-.87a5.75 5.75 0 01-2.505-2.514c-.564-1.097-.846-2.322-.846-3.676 0-1.34.28-2.593.842-3.756.56-1.163 1.367-2.026 2.42-2.59 1.053-.564 2.266-.846 3.639-.846.996 0 1.897.162 2.703.484.805.323 1.436.772 1.894 1.35.458.576.806 1.328 1.044 2.255l-1.645.451c-.207-.702-.465-1.253-.771-1.654-.307-.4-.746-.722-1.316-.963a4.826 4.826 0 00-1.9-.362c-.833 0-1.554.127-2.162.381-.608.254-1.098.588-1.471 1.001a4.795 4.795 0 00-.87 1.363 7.206 7.206 0 00-.527 2.773c0 1.229.212 2.256.635 3.083a4.063 4.063 0 001.847 1.843 5.722 5.722 0 002.576.602c.79 0 1.56-.152 2.313-.456.752-.304 1.322-.629 1.71-.973v-2.566h-4.05zm7.681.414c0-1.849.513-3.218 1.541-4.108.86-.74 1.906-1.11 3.14-1.11 1.372 0 2.495.45 3.366 1.35.871.9 1.306 2.142 1.306 3.727 0 1.286-.192 2.296-.578 3.032a4.091 4.091 0 01-1.683 1.716 4.902 4.902 0 01-2.411.611c-1.398 0-2.528-.448-3.39-1.344-.861-.897-1.291-2.188-1.291-3.874zm1.739 0c0 1.279.278 2.236.836 2.873.558.636 1.26.954 2.107.954.84 0 1.538-.32 2.096-.96.558-.639.837-1.613.837-2.923 0-1.235-.28-2.17-.842-2.806-.56-.636-1.258-.955-2.091-.955-.846 0-1.548.317-2.107.95-.557.633-.836 1.588-.836 2.867zm8.968 0c0-1.849.514-3.218 1.542-4.108.858-.74 1.905-1.11 3.14-1.11 1.372 0 2.494.45 3.365 1.35.871.9 1.307 2.142 1.307 3.727 0 1.286-.193 2.296-.579 3.032a4.091 4.091 0 01-1.682 1.716 4.902 4.902 0 01-2.412.611c-1.398 0-2.527-.448-3.389-1.344-.86-.897-1.292-2.188-1.292-3.874zm1.739 0c0 1.279.278 2.236.837 2.873.557.636 1.26.954 2.106.954.84 0 1.539-.32 2.096-.96.558-.639.837-1.613.837-2.923 0-1.235-.28-2.17-.841-2.806-.561-.636-1.259-.955-2.092-.955-.846 0-1.548.317-2.106.95-.558.633-.837 1.588-.837 2.867zm9.289 5.82l1.645.244c.069.507.26.877.573 1.11.42.313.994.47 1.72.47.784 0 1.39-.157 1.816-.47.426-.315.714-.753.865-1.317.087-.345.128-1.069.122-2.172-.74.872-1.66 1.307-2.764 1.307-1.373 0-2.435-.495-3.187-1.485-.753-.99-1.129-2.178-1.129-3.563 0-.953.173-1.832.517-2.637.345-.806.845-1.428 1.5-1.867.655-.438 1.424-.658 2.308-.658 1.178 0 2.15.477 2.914 1.43v-1.204h1.56v8.63c0 1.554-.157 2.656-.474 3.305-.316.648-.817 1.16-1.504 1.537-.687.376-1.531.563-2.534.563-1.191 0-2.153-.268-2.886-.803-.733-.535-1.087-1.343-1.063-2.42zm1.4-5.998c0 1.31.26 2.265.78 2.867.52.602 1.172.903 1.956.903.777 0 1.43-.3 1.956-.898.526-.598.79-1.537.79-2.816 0-1.222-.272-2.143-.814-2.764-.542-.62-1.196-.931-1.96-.931-.753 0-1.392.305-1.918.916-.526.613-.79 1.52-.79 2.723zm9.58 5.17V23.167h1.692v13.782h-1.692zm11.15-3.215l1.748.216c-.275 1.022-.786 1.815-1.532 2.379-.746.564-1.699.846-2.858.846-1.461 0-2.619-.45-3.474-1.35-.855-.899-1.283-2.16-1.283-3.784 0-1.68.433-2.982 1.297-3.91.866-.928 1.987-1.392 3.366-1.392 1.335 0 2.426.455 3.272 1.363.846.91 1.269 2.187 1.269 3.836 0 .1-.003.25-.009.45h-7.446c.062 1.098.372 1.937.93 2.52s1.254.874 2.088.874c.62 0 1.149-.163 1.589-.489.438-.324.786-.844 1.043-1.559zm-5.556-2.736h5.574c-.075-.84-.288-1.47-.639-1.89-.539-.651-1.238-.977-2.097-.977-.777 0-1.43.26-1.96.78-.529.521-.822 1.216-.878 2.087zm14.994 5.951V23.167h5.199c.915 0 1.614.044 2.096.131.677.113 1.244.328 1.702.645.457.316.826.76 1.104 1.33a4.22 4.22 0 01.419 1.88c0 1.173-.373 2.164-1.119 2.975-.746.812-2.093 1.218-4.043 1.218h-3.535v5.603h-1.823zm1.824-7.229h3.563c1.178 0 2.015-.22 2.51-.658.495-.439.743-1.056.743-1.852 0-.576-.146-1.07-.438-1.48a2.043 2.043 0 00-1.152-.814c-.307-.08-.873-.122-1.701-.122h-3.526v4.926h.001zm10.764 7.229V23.167h1.692v13.782h-1.692zm10.83-1.231c-.627.532-1.23.908-1.81 1.128a5.23 5.23 0 01-1.866.33c-1.097 0-1.94-.269-2.529-.805-.59-.535-.884-1.22-.884-2.053 0-.49.112-.936.334-1.34a2.75 2.75 0 01.874-.973 4.11 4.11 0 011.217-.555c.332-.088.834-.172 1.505-.254 1.366-.163 2.372-.357 3.018-.583.006-.231.009-.379.009-.442 0-.69-.159-1.175-.479-1.457-.432-.382-1.075-.573-1.927-.573-.796 0-1.384.14-1.763.418-.379.279-.659.772-.841 1.48l-1.655-.225c.151-.709.399-1.28.743-1.716.345-.435.843-.77 1.495-1.006.652-.235 1.407-.353 2.266-.353.852 0 1.545.1 2.077.301.533.201.924.454 1.175.758.25.303.426.687.527 1.151.056.288.084.809.084 1.561v2.256c0 1.574.036 2.569.108 2.985.072.417.215.816.428 1.199h-1.767a3.578 3.578 0 01-.339-1.233zm-.141-3.78c-.614.251-1.536.465-2.764.64-.696.1-1.188.213-1.476.338a1.475 1.475 0 00-.668.55c-.156.242-.235.51-.235.804 0 .451.171.827.512 1.128.342.302.842.451 1.5.451.652 0 1.232-.142 1.739-.427.508-.286.88-.675 1.119-1.17.181-.383.272-.947.272-1.693v-.62h.001zm4.258 8.856l-.187-1.59c.369.101.692.151.968.151.376 0 .676-.062.903-.187a1.54 1.54 0 00.554-.527c.107-.17.279-.59.518-1.26.031-.094.081-.231.15-.414l-3.789-10.002h1.824l2.077 5.781c.27.733.511 1.505.724 2.313a22.89 22.89 0 01.696-2.276l2.135-5.82h1.692l-3.798 10.154c-.408 1.097-.724 1.852-.95 2.266-.301.558-.645.967-1.034 1.227-.388.26-.852.39-1.391.39a3.341 3.341 0 01-1.092-.206z" fill="#fff"/><path d="M156.234 51H5.766C3.134 51 1 48.799 1 46.084V5.916C1 3.201 3.134 1 5.766 1h150.468C158.866 1 161 3.201 161 5.916v40.168c0 2.715-2.134 4.916-4.766 4.916z" stroke="#fff" stroke-miterlimit="10"/></svg>